# xmcd
#
# Track frame offsets: 
#        150
#        7776
#        36512
#        53280
#        75863
#        93614
#        115468
#        152387
#        175291
#
# Disc length: 2861 seconds
#
# Revision: 0
# Processed by: cddbd v1.5.2PL0 Copyright (c) Steve Scherf et al.
# Submitted via: ExactAudioCopyFreeDBPlugin 1.0
#
DISCID=590b2b09
DTITLE=LOUDNESS - METAL WEEKEND CD1
DYEAR=2019
DGENRE=Heavy Metal
TTITLE0=8118
TTITLE1=SOUL ON FIRE
TTITLE2=I'M STILL ALIVE
TTITLE3=CRAZY NIGHTS
TTITLE4=LIKE HELL
TTITLE5=HEAVY CHAINS
TTITLE6=THE SUN WILL RISE AGAIN
TTITLE7=GO FOR BROKE
TTITLE8=ARES' LAMENT
EXTD=
EXTT0=
EXTT1=
EXTT2=
EXTT3=
EXTT4=
EXTT5=
EXTT6=
EXTT7=
EXTT8=
PLAYORDER=
